<?xml version="1.0" encoding="UTF-8" standalone="no"?>
<svg width="32px" height="32px" viewBox="0 0 32 32" version="1.1" xmlns="http://www.w3.org/2000/svg" xmlns:xlink="http://www.w3.org/1999/xlink">
    <!-- Generator: Sketch 3.8.3 (29802) - http://www.bohemiancoding.com/sketch -->
    <title>Page 1</title>
    <desc>Created with Sketch.</desc>
    <defs>
        <linearGradient x1="0%" y1="-23.3547838%" x2="117.813467%" y2="119.629593%" id="linearGradient-1">
            <stop stop-color="#BFBFBF" offset="0%"></stop>
            <stop stop-color="#8A8A8A" offset="100%"></stop>
        </linearGradient>
    </defs>
    <g id="Page-1" stroke="none" stroke-width="1" fill="none" fill-rule="evenodd">
        <g id="Desktop" transform="translate(-950.000000, -2124.000000)" fill="url(#linearGradient-1)">
            <g id="footer" transform="translate(0.000000, 2074.000000)">
                <path d="M970.158815,66.4225483 L967.594891,66.4225483 L967.594891,75.6247349 L963.794634,75.6247349 L963.794634,66.4225483 L961.987747,66.4225483 L961.987747,63.1714285 L963.794634,63.1714285 L963.794634,61.0681856 C963.794634,59.5640435 964.504852,57.2083796 967.629014,57.2083796 L970.443695,57.2203616 L970.443695,60.3756252 L968.401127,60.3756252 C968.066253,60.3756252 967.594891,60.5441722 967.594891,61.2614955 L967.594891,63.1746237 L970.490514,63.1746237 L970.158815,66.4225483 Z M966.237147,50 C957.548691,50 950.478261,57.1181151 950.478261,65.8641864 C950.478261,74.613453 957.548691,81.7307692 966.237147,81.7307692 C974.928776,81.7307692 982,74.613453 982,65.8641864 C982,57.1181151 974.928776,50 966.237147,50 L966.237147,50 Z" id="Page-1"></path>
            </g>
        </g>
    </g>
</svg>