<?xml version="1.0" encoding="UTF-8" standalone="no"?>
<svg width="12px" height="10px" viewBox="0 0 12 10" version="1.1" xmlns="http://www.w3.org/2000/svg" xmlns:xlink="http://www.w3.org/1999/xlink">
    <!-- Generator: Sketch 3.8.3 (29802) - http://www.bohemiancoding.com/sketch -->
    <title>Page 1</title>
    <desc>Created with Sketch.</desc>
    <defs></defs>
    <g id="Page-1" stroke="none" stroke-width="1" fill="none" fill-rule="evenodd">
        <g id="Desktop" transform="translate(-112.000000, -2240.000000)" fill="#FF4242">
            <g id="footer" transform="translate(0.000000, 2074.000000)">
                <path d="M123.154408,169.012213 C123.154408,167.348571 121.805723,166 120.14211,166 C119.055833,166 118.10717,166.576912 117.577147,167.439125 C117.04721,166.576912 116.098122,166 115.011873,166 C113.34826,166 112,167.348571 112,169.012213 C112,169.917948 112.401379,170.728206 113.033869,171.280018 L117.302232,175.548607 C117.375184,175.621446 117.474001,175.66245 117.577147,175.66245 C117.680265,175.66245 117.77911,175.621446 117.852063,175.548607 L122.120426,171.280018 C122.753028,170.728206 123.154408,169.917948 123.154408,169.012213" id="Page-1"></path>
            </g>
        </g>
    </g>
</svg>