<?xml version="1.0" encoding="UTF-8" standalone="no"?>
<svg width="148px" height="32px" viewBox="0 0 148 32" version="1.1" xmlns="http://www.w3.org/2000/svg" xmlns:xlink="http://www.w3.org/1999/xlink">
    <!-- Generator: Sketch 3.8.3 (29802) - http://www.bohemiancoding.com/sketch -->
    <title>Page 1</title>
    <desc>Created with Sketch.</desc>
    <defs></defs>
    <g id="Page-1" stroke="none" stroke-width="1" fill="none" fill-rule="evenodd">
        <g id="Desktop" transform="translate(-40.000000, -40.000000)" fill="#FFFFFF">
            <g id="Page-1" transform="translate(40.000000, 40.000000)">
                <path d="M44.482198,7.26370909 L44.482198,16.2964364 C44.482198,17.1218909 44.3262176,17.8957091 44.0135314,18.6164364 C43.7008451,19.3378909 43.2771588,19.9662545 42.7417471,20.5029818 C42.2056098,21.0411636 41.5758843,21.4637091 40.8511196,21.7720727 C40.1270804,22.0804364 39.3529824,22.2346182 38.529551,22.2346182 C37.7061196,22.2346182 36.9349235,22.0804364 36.2152373,21.7720727 C35.495551,21.4637091 34.8687275,21.0411636 34.3333157,20.5029818 C33.7964529,19.9662545 33.3749431,19.3378909 33.0673353,18.6164364 C32.7597275,17.8957091 32.6059235,17.1218909 32.6059235,16.2964364 C32.6059235,15.4818909 32.7597275,14.7109818 33.0673353,13.9837091 C33.3749431,13.2586182 33.7964529,12.6237091 34.3333157,12.0826182 C34.8687275,11.5393455 35.495551,11.1124364 36.2152373,10.7989818 C36.9349235,10.4855273 37.7061196,10.3291636 38.529551,10.3291636 L41.5062373,13.2833455 L38.529551,13.2833455 C38.122551,13.2833455 37.7387667,13.3633455 37.3767471,13.5226182 C37.0147275,13.6811636 36.6998647,13.8949818 36.4307078,14.1633455 C36.163002,14.4317091 35.9497078,14.7495273 35.791551,15.1175273 C35.6326686,15.4869818 35.5528647,15.8789818 35.5528647,16.2964364 C35.5528647,16.7044364 35.6326686,17.0906182 35.791551,17.4520727 C35.9497078,17.8164364 36.163002,18.1320727 36.4307078,18.4004364 C36.6998647,18.6688 37.0147275,18.8826182 37.3767471,19.0411636 C37.7387667,19.2004364 38.122551,19.2804364 38.529551,19.2804364 C38.9459824,19.2804364 39.3384725,19.2004364 39.7055706,19.0411636 C40.0726686,18.8826182 40.3897078,18.6688 40.6574137,18.4004364 C40.9251196,18.1320727 41.1398647,17.8164364 41.2980216,17.4520727 C41.4569039,17.0906182 41.5352569,16.7044364 41.5352569,16.2964364 L41.5352569,7.26370909 L44.482198,7.26370909 Z" id="Fill-1"></path>
                <path d="M58.0123725,13.2830545 C57.5959412,13.2830545 57.203451,13.3630545 56.8363529,13.5223273 C56.4692549,13.6816 56.1522157,13.8946909 55.8845098,14.1630545 C55.6168039,14.4314182 55.4027843,14.7470545 55.243902,15.1099636 C55.0850196,15.4736 55.0066667,15.8590545 55.0066667,16.2670545 C55.0066667,16.6852364 55.0850196,17.0772364 55.243902,17.4452364 C55.4027843,17.8125091 55.6168039,18.1317818 55.8845098,18.4001455 C56.1522157,18.6685091 56.4692549,18.8823273 56.8363529,19.0416 C57.203451,19.2001455 57.5959412,19.2808727 58.0123725,19.2808727 C58.4193725,19.2808727 58.8031569,19.2001455 59.1651765,19.0416 C59.5271961,18.8823273 59.8420588,18.6685091 60.1112157,18.4001455 C60.3789216,18.1317818 60.5922157,17.8125091 60.7503725,17.4452364 C60.9092549,17.0772364 60.9890588,16.6852364 60.9890588,16.2670545 C60.9890588,15.8590545 60.9092549,15.4736 60.7503725,15.1099636 C60.5922157,14.7470545 60.3789216,14.4314182 60.1112157,14.1630545 C59.8420588,13.8946909 59.5271961,13.6816 59.1651765,13.5223273 C58.8031569,13.3630545 58.4193725,13.2830545 58.0123725,13.2830545 M58.0123725,22.2343273 C57.1889412,22.2343273 56.4170196,22.0779636 55.6980588,21.7645091 C54.9783725,21.4510545 54.3486471,21.0241455 53.8088824,20.4816 C53.2669412,19.9397818 52.8410784,19.3070545 52.5283922,18.5863273 C52.2157059,17.8648727 52.0597255,17.0925091 52.0597255,16.2670545 C52.0597255,15.4510545 52.2157059,14.6801455 52.5283922,13.9543273 C52.8410784,13.2285091 53.2669412,12.5943273 53.8088824,12.0517818 C54.3486471,11.5106909 54.9783725,11.0816 55.6980588,10.7688727 C56.4170196,10.4554182 57.1889412,10.2990545 58.0123725,10.2990545 C58.8263725,10.2990545 59.5953922,10.4554182 60.3194314,10.7688727 C61.0427451,11.0816 61.676098,11.5106909 62.2158627,12.0517818 C62.7578039,12.5943273 63.1836667,13.2285091 63.4963529,13.9543273 C63.8090392,14.6801455 63.9650196,15.4510545 63.9650196,16.2670545 C63.9650196,17.0925091 63.8090392,17.8648727 63.4963529,18.5863273 C63.1836667,19.3070545 62.7578039,19.9397818 62.2158627,20.4816 C61.676098,21.0241455 61.0427451,21.4510545 60.3194314,21.7645091 C59.5953922,22.0779636 58.8263725,22.2343273 58.0123725,22.2343273" id="Fill-3"></path>
                <path d="M79.7788196,14.7448 L84.5409373,14.7448 C84.2826627,14.2771636 83.9235451,13.9018909 83.4621333,13.6182545 C82.9999961,13.3353455 82.4870745,13.1935273 81.9211922,13.1935273 C81.5047608,13.1935273 81.1122706,13.2735273 80.7451725,13.4320727 C80.3780745,13.5913455 80.0559569,13.8102545 79.7788196,14.0895273 C79.5002314,14.3673455 79.2825843,14.6902545 79.123702,15.0582545 C78.9648196,15.4262545 78.8850157,15.8189818 78.8850157,16.2371636 C78.8850157,16.6546182 78.9648196,17.0480727 79.123702,17.4160727 C79.2825843,17.7833455 79.5002314,18.1062545 79.7788196,18.3848 C80.0559569,18.6640727 80.3780745,18.8822545 80.7451725,19.0415273 C81.1122706,19.2008 81.5047608,19.2808 81.9211922,19.2808 L86.5345843,19.2808 L83.5586235,22.2342545 L81.9211922,22.2342545 C81.0977608,22.2342545 80.3214863,22.0778909 79.5923686,21.7644364 C78.863251,21.4509818 78.2284471,21.0240727 77.6872314,20.4815273 C77.1467412,19.9397091 76.7194275,19.3026182 76.4074667,18.5717091 C76.0947804,17.8408 75.9380745,17.0626182 75.9380745,16.2371636 C75.9380745,15.4109818 76.0947804,14.6328 76.4074667,13.9018909 C76.7194275,13.1717091 77.1467412,12.5353455 77.6872314,11.9928 C78.2284471,11.4509818 78.863251,11.0226182 79.5923686,10.7091636 C80.3214863,10.3957091 81.0977608,10.2393455 81.9211922,10.2393455 C82.7446235,10.2393455 83.520898,10.3957091 84.2500157,10.7091636 C84.9791333,11.0226182 85.6139373,11.4509818 86.1551529,11.9928 C86.6956431,12.5353455 87.1229569,13.1717091 87.4356431,13.9018909 C87.7476039,14.6328 87.9043098,15.4109818 87.9043098,16.2371636 L87.9043098,17.6989818 L82.7547804,17.6989818 L79.7788196,14.7448 Z" id="Fill-5"></path>
                <path d="M102.890906,13.2424 C102.474475,13.2424 102.081984,13.3224 101.714886,13.4816727 C101.347788,13.6409455 101.030749,13.8540364 100.763043,14.1224 C100.495337,14.3907636 100.281318,14.7064 100.122435,15.0693091 C99.9635529,15.4329455 99.8852,15.8184 99.8852,16.2264 C99.8852,16.6445818 99.9635529,17.0365818 100.122435,17.4045818 C100.281318,17.7718545 100.495337,18.0911273 100.763043,18.3594909 C101.030749,18.6278545 101.347788,18.8416727 101.714886,19.0009455 C102.081984,19.1594909 102.474475,19.2402182 102.890906,19.2402182 C103.297906,19.2402182 103.68169,19.1594909 104.04371,19.0009455 C104.405729,18.8416727 104.720592,18.6278545 104.989749,18.3594909 C105.257455,18.0911273 105.470749,17.7718545 105.628906,17.4045818 C105.787788,17.0365818 105.867592,16.6445818 105.867592,16.2264 C105.867592,15.8184 105.787788,15.4329455 105.628906,15.0693091 C105.470749,14.7064 105.257455,14.3907636 104.989749,14.1224 C104.720592,13.8540364 104.405729,13.6409455 104.04371,13.4816727 C103.68169,13.3224 103.297906,13.2424 102.890906,13.2424 M102.890906,22.1936727 C102.067475,22.1936727 101.295553,22.0373091 100.576592,21.7238545 C99.8569059,21.4104 99.2271804,20.9834909 98.6874157,20.4409455 C98.1454745,19.8991273 97.7196118,19.2664 97.4069255,18.5456727 C97.0942392,17.8242182 96.9382588,17.0518545 96.9382588,16.2264 C96.9382588,15.4104 97.0942392,14.6394909 97.4069255,13.9136727 C97.7196118,13.1878545 98.1454745,12.5536727 98.6874157,12.0111273 C99.2271804,11.4700364 99.8569059,11.0409455 100.576592,10.7282182 C101.295553,10.4147636 102.067475,10.2584 102.890906,10.2584 C103.704906,10.2584 104.473925,10.4147636 105.197965,10.7282182 C105.921278,11.0409455 106.554631,11.4700364 107.094396,12.0111273 C107.636337,12.5536727 108.0622,13.1878545 108.374886,13.9136727 C108.687573,14.6394909 108.843553,15.4104 108.843553,16.2264 C108.843553,17.0518545 108.687573,17.8242182 108.374886,18.5456727 C108.0622,19.2664 107.636337,19.8991273 107.094396,20.4409455 C106.554631,20.9834909 105.921278,21.4104 105.197965,21.7238545 C104.473925,22.0373091 103.704906,22.1936727 102.890906,22.1936727" id="Fill-7"></path>
                <path d="M119.855261,10.2581818 C120.450163,10.2581818 121.010967,10.3738182 121.536222,10.6014545 C122.062202,10.8312727 122.518535,11.1381818 122.905947,11.5265455 C123.292633,11.9141818 123.600241,12.3694545 123.82732,12.8916364 C124.056575,13.4138182 124.170476,13.9687273 124.170476,14.5549091 L124.170476,22.1934545 L121.223535,22.1934545 L121.223535,14.5549091 C121.223535,14.1774545 121.08932,13.8589091 120.821614,13.6007273 C120.553908,13.3418182 120.23179,13.2123636 119.855261,13.2123636 C119.47728,13.2123636 119.155163,13.3418182 118.887457,13.6007273 C118.619751,13.8589091 118.485535,14.1774545 118.485535,14.5549091 L118.485535,22.1934545 L115.569065,22.1934545 L115.569065,14.5549091 C115.569065,14.1774545 115.434849,13.8589091 115.167143,13.6007273 C114.899437,13.3418182 114.575869,13.2123636 114.199339,13.2123636 C113.82281,13.2123636 113.500692,13.3418182 113.231535,13.6007273 C112.963829,13.8589091 112.831065,14.1774545 112.831065,14.5549091 L112.831065,22.1934545 L109.913143,22.1934545 L109.913143,14.5549091 C109.913143,13.9687273 110.027045,13.4138182 110.2563,12.8916364 C110.484104,12.3694545 110.791712,11.9141818 111.179124,11.5265455 C111.565084,11.1381818 112.019241,10.8312727 112.540143,10.6014545 C113.061045,10.3738182 113.614594,10.2581818 114.199339,10.2581818 C114.755065,10.2581818 115.271614,10.3556364 115.747535,10.5498182 C116.223457,10.744 116.64932,11.0050909 117.0273,11.3323636 C117.413986,11.0050909 117.848555,10.744 118.329555,10.5498182 C118.809829,10.3556364 119.318398,10.2581818 119.855261,10.2581818" id="Fill-9"></path>
                <path d="M128.501798,21.0452364 C128.501798,21.3630545 128.390073,21.6343273 128.166622,21.8576 C127.943171,22.0823273 127.673288,22.1936 127.356249,22.1936 C127.037759,22.1936 126.767151,22.0823273 126.544425,21.8576 C126.3217,21.6343273 126.209249,21.3630545 126.209249,21.0452364 C126.209249,20.7259636 126.3217,20.4554182 126.544425,20.2321455 C126.767151,20.0081455 127.037759,19.8954182 127.356249,19.8954182 C127.673288,19.8954182 127.943171,20.0081455 128.166622,20.2321455 C128.390073,20.4554182 128.501798,20.7259636 128.501798,21.0452364" id="Fill-11"></path>
                <polygon id="Fill-13" points="135.12828 13.2120727 133.610555 13.2120727 133.610555 22.1938909 130.664339 22.1938909 130.664339 13.2120727 127.805908 13.2120727 127.805908 10.2578909 138.075222 10.2578909"></polygon>
                <polygon id="Fill-15" points="147.720396 10.2581818 140.757867 22.1934545 136.4782 13.7447273 138.681514 11.5381818 140.877573 15.808 144.326553 10.2581818"></polygon>
                <path d="M74.9472,13.6788364 C74.6591804,13.0075636 74.2703176,12.4199273 73.7784353,11.9181091 C73.2880039,11.4155636 72.7068863,11.0199273 72.0372588,10.7319273 C71.3683569,10.4432 70.6559255,10.2992 69.9014157,10.2992 C69.1374745,10.2992 68.4228667,10.4432 67.7590431,10.7319273 C67.6008863,10.8010182 67.4615922,10.8962909 67.3121412,10.9770182 L67.3121412,10.2584727 L64.3963961,10.2584727 L64.3963961,15.8192 L64.3963961,16.7282909 L64.3963961,22.2344727 L67.3121412,22.2344727 L67.3121412,16.7282909 L67.3121412,15.8192 C67.3121412,15.4613818 67.3788863,15.1261091 67.5138275,14.8119273 C67.6480431,14.4984727 67.8330431,14.2279273 68.0717294,13.9995636 C68.3089647,13.7697455 68.5853765,13.5886545 68.8980627,13.4541091 C69.2100235,13.3210182 69.5444745,13.2526545 69.9014157,13.2526545 C70.249651,13.2526545 70.5790235,13.3210182 70.8909843,13.4541091 C71.2036706,13.5886545 71.4771804,13.7697455 71.7100627,13.9995636 C71.9436706,14.2279273 72.1264941,14.4984727 72.2607098,14.8119273 C72.3942,15.1261091 72.4616706,15.4613818 72.4616706,15.8192 L72.4616706,22.2344727 L75.3781412,22.2344727 L75.3781412,15.8192 C75.3781412,15.0628364 75.2344941,14.3501091 74.9472,13.6788364" id="Fill-17"></path>
                <path d="M96.5628902,19.1598545 C96.4569686,18.9154909 96.3677333,18.6653091 96.2901059,18.4107636 C96.0216745,18.6638545 95.723498,18.8674909 95.3883216,19.0078545 C95.021949,19.1620364 94.6352627,19.2398545 94.2282627,19.2398545 C93.8212627,19.2398545 93.433851,19.1598545 93.0667529,19.0005818 C92.7003804,18.8420364 92.3804392,18.6282182 92.1076549,18.3598545 C91.8341451,18.0914909 91.6186745,17.7722182 91.4597922,17.4042182 C91.3009098,17.0362182 91.2225569,16.6442182 91.2225569,16.2267636 C91.2225569,15.8078545 91.3009098,15.4158545 91.4597922,15.0478545 C91.6186745,14.6798545 91.8341451,14.3620364 92.1076549,14.0922182 C92.3804392,13.8238545 92.7003804,13.6100364 93.0667529,13.4514909 C93.433851,13.2922182 93.8212627,13.2122182 94.2282627,13.2122182 C94.6352627,13.2122182 95.021949,13.2849455 95.3883216,13.4296727 C95.7271255,13.5613091 96.0282039,13.7634909 96.2988118,14.0187636 C96.3742627,13.7758545 96.4613216,13.5365818 96.5628902,13.3009455 C96.8668706,12.5954909 97.2825765,11.9802182 97.7570471,11.4114909 C97.3710863,11.1249455 96.9655373,10.8711273 96.5200863,10.6842182 C95.7953216,10.3809455 95.0313804,10.2289455 94.2282627,10.2289455 C93.4048314,10.2289455 92.6336353,10.3860364 91.913949,10.6987636 C91.1942627,11.0122182 90.5645373,11.4391273 90.0247725,11.9824 C89.4835569,12.5234909 89.0569686,13.1598545 88.7442824,13.8907636 C88.4323216,14.6231273 88.2756157,15.4013091 88.2756157,16.2267636 C88.2756157,17.0522182 88.4323216,17.8245818 88.7442824,18.5453091 C89.0569686,19.2667636 89.4835569,19.8994909 90.0247725,20.4405818 C90.5645373,20.9831273 91.1942627,21.4107636 91.913949,21.7242182 C92.6336353,22.0369455 93.4048314,22.1940364 94.2282627,22.1940364 C95.0313804,22.1940364 95.7953216,22.0420364 96.5200863,21.7387636 C96.9597333,21.5540364 97.3602039,21.3045818 97.7418118,21.0231273 C97.2745961,20.4609455 96.8632431,19.8536727 96.5628902,19.1598545" id="Fill-19"></path>
                <path d="M51.4595275,13.2612364 C51.5364294,13.2648727 51.6082529,13.2830545 51.679351,13.3019636 C52.0529784,12.4830545 52.5376059,11.7550545 53.1571745,11.1339636 C53.2783314,11.0132364 53.4212529,10.9208727 53.5496647,10.8088727 C53.2507627,10.6816 52.9460569,10.5674182 52.6282922,10.4859636 C52.1465667,10.3623273 51.6532333,10.2990545 51.1468412,10.2990545 C50.3139784,10.2990545 49.530449,10.4576 48.7962529,10.7776 C48.0613314,11.0954182 47.421449,11.5303273 46.8766059,12.0823273 C46.3303118,12.6336 45.8993706,13.2779636 45.5823314,14.0139636 C45.2638412,14.7499636 45.1049588,15.5412364 45.1049588,16.3863273 L45.1049588,22.2343273 L48.0221549,22.2343273 L48.0221549,16.3863273 C48.0221549,15.9586909 48.1063118,15.5536 48.275351,15.1696 C48.4436647,14.7870545 48.6692922,14.4546909 48.9522333,14.1703273 C49.234449,13.8874182 49.5638216,13.6634182 49.941802,13.4990545 C50.3183314,13.3354182 50.7209784,13.2525091 51.1468412,13.2525091 C51.2563902,13.2525091 51.3601353,13.2554182 51.4595275,13.2612364" id="Fill-21"></path>
                <g id="Group-25" transform="translate(0.000000, 0.563636)">
                    <path d="M0.103092157,1.90341818 L3.11605294,9.04814545 C3.23213137,9.32378182 3.44324902,9.54850909 3.71022941,9.68087273 L17.2892294,16.4197818 C17.9022686,16.7237818 18.1344255,17.4816 17.7970725,18.0779636 L11.8727196,28.5637818 C11.6819157,28.9005091 11.6587,29.3077818 11.8088765,29.6648727 L12.3653275,30.9841455 C12.511151,31.3296 12.9805431,31.3754182 13.1894843,31.0641455 L24.6681902,15.4059636 C25.0693863,14.8088727 24.8851118,13.9957818 24.2648176,13.6314182 L1.87981765,0.340509091 C0.845268627,-0.266763636 -0.363398039,0.797236364 0.103092157,1.90341818" id="Fill-23"></path>
                </g>
                <path d="M4.87094118,14.2968 L10.1931373,26.3753455 C10.2656863,26.5404364 10.4927647,26.5578909 10.5899804,26.4058909 L12.1403529,23.9753455 C12.3260784,23.6851636 12.3398627,23.3171636 12.1780784,23.0131636 L8.14507843,15.4589818 C8.04060784,15.2640727 7.87229412,15.1113455 7.66843137,15.0277091 L5.16331373,13.9957091 C4.97541176,13.9178909 4.78896078,14.1098909 4.87094118,14.2968" id="Fill-26"></path>
            </g>
        </g>
    </g>
</svg>