<?xml version="1.0" encoding="UTF-8" standalone="no"?>
<svg width="32px" height="32px" viewBox="0 0 32 32" version="1.1" xmlns="http://www.w3.org/2000/svg" xmlns:xlink="http://www.w3.org/1999/xlink">
    <!-- Generator: Sketch 3.8.3 (29802) - http://www.bohemiancoding.com/sketch -->
    <title>Page 1</title>
    <desc>Created with Sketch.</desc>
    <defs>
        <linearGradient x1="0%" y1="-23.3547838%" x2="117.813467%" y2="119.629593%" id="linearGradient-1">
            <stop stop-color="#BFBFBF" offset="0%"></stop>
            <stop stop-color="#8A8A8A" offset="100%"></stop>
        </linearGradient>
    </defs>
    <g id="Page-1" stroke="none" stroke-width="1" fill="none" fill-rule="evenodd">
        <g id="Desktop" transform="translate(-895.000000, -2125.000000)" fill="url(#linearGradient-1)">
            <g id="footer" transform="translate(0.000000, 2074.000000)">
                <path d="M917.792813,63.5044646 C917.798368,63.6602308 917.801542,63.8191921 917.801542,63.9789523 C917.801542,68.8029111 914.153644,74.3657608 907.479984,74.3657608 C905.431067,74.3657608 903.524193,73.7642637 901.918864,72.7250237 C902.203745,72.7593721 902.491799,72.7777445 902.783821,72.7777445 C904.485168,72.7777445 906.047646,72.1946199 907.290328,71.2144911 C905.70325,71.1833379 904.364551,70.1289207 903.902711,68.6774994 C904.122521,68.7214334 904.34868,68.7430011 904.584361,68.7430011 C904.912886,68.7430011 905.235063,68.6998658 905.538988,68.6151929 C903.880492,68.2812941 902.628288,66.8059088 902.628288,65.0365647 C902.628288,65.0205887 902.628288,65.0054115 902.631462,64.9894355 C903.117901,65.264223 903.679727,65.4263796 904.274881,65.444752 C903.301209,64.7929305 902.659236,63.6730116 902.659236,62.4061133 C902.659236,61.7383157 902.839369,61.111257 903.149643,60.5712676 C904.937486,62.7807509 907.613298,64.2345686 910.625571,64.3871396 C910.563675,64.1187425 910.532727,63.8415586 910.532727,63.5539902 C910.532727,61.5386155 912.157101,59.90347 914.159993,59.90347 C915.20429,59.90347 916.14622,60.3468045 916.806444,61.0545421 C917.634105,60.8923855 918.412567,60.58964 919.113262,60.1686719 C918.840284,61.0233889 918.266556,61.7383157 917.516662,62.190437 C918.251478,62.1033677 918.952173,61.9068627 919.599701,61.616898 C919.116436,62.347002 918.499063,62.989238 917.792813,63.5044646 M910.758886,51.2692308 C902.07043,51.2692308 895,58.3873458 895,67.1334172 C895,75.8826837 902.07043,83 910.758886,83 C919.450515,83 926.521739,75.8826837 926.521739,67.1334172 C926.521739,58.3873458 919.450515,51.2692308 910.758886,51.2692308" id="Page-1"></path>
            </g>
        </g>
    </g>
</svg>